<mxfile host="app.diagrams.net" agent="Mozilla/5.0 (Windows NT 10.0; Win64; x64) AppleWebKit/537.36 (KHTML, like Gecko) Chrome/133.0.0.0 Safari/537.36" version="26.0.16">
  <diagram name="Страница — 1" id="6GK20kXEfVS8mFXR4A31">
    <mxGraphModel dx="1434" dy="780" grid="1" gridSize="10" guides="1" tooltips="1" connect="1" arrows="1" fold="1" page="1" pageScale="1" pageWidth="827" pageHeight="1169" math="0" shadow="0">
      <root>
        <mxCell id="0" />
        <mxCell id="1" parent="0" />
        <mxCell id="tRIh7gjQmwrZG-bwbQby-1" value="&lt;b&gt;&lt;font style=&quot;font-size: 14px;&quot;&gt;карта сайта:&lt;/font&gt;&lt;/b&gt;&lt;div&gt;&lt;i&gt;1. главная&lt;/i&gt;&lt;/div&gt;&lt;div&gt;&lt;i&gt;2. зарплата&lt;/i&gt;&lt;/div&gt;&lt;div&gt;&lt;i&gt;3. география&lt;/i&gt;&lt;/div&gt;&lt;div&gt;&lt;i&gt;4. навыки&lt;/i&gt;&lt;/div&gt;&lt;div&gt;&lt;i&gt;5. последние вакансии&lt;/i&gt;&lt;/div&gt;" style="rounded=0;whiteSpace=wrap;html=1;fillColor=#ffe6cc;strokeColor=#d79b00;" parent="1" vertex="1">
          <mxGeometry x="40" y="80" width="240" height="160" as="geometry" />
        </mxCell>
        <mxCell id="tRIh7gjQmwrZG-bwbQby-5" value="&lt;b&gt;&lt;font style=&quot;font-size: 28px;&quot;&gt;Диаграмма БД&lt;/font&gt;&lt;/b&gt;" style="text;html=1;align=center;verticalAlign=middle;resizable=0;points=[];autosize=1;strokeColor=none;fillColor=none;" parent="1" vertex="1">
          <mxGeometry x="40" y="300" width="230" height="50" as="geometry" />
        </mxCell>
        <mxCell id="tRIh7gjQmwrZG-bwbQby-6" value="siteUser" style="swimlane;fontStyle=0;childLayout=stackLayout;horizontal=1;startSize=40;fillColor=#dae8fc;horizontalStack=0;resizeParent=1;resizeParentMax=0;resizeLast=0;collapsible=1;marginBottom=0;whiteSpace=wrap;html=1;strokeColor=#6c8ebf;gradientColor=#7ea6e0;" parent="1" vertex="1">
          <mxGeometry x="280" y="439" width="240" height="178" as="geometry" />
        </mxCell>
        <mxCell id="tRIh7gjQmwrZG-bwbQby-7" value="&quot;first name&quot;" style="text;strokeColor=#6c8ebf;fillColor=#dae8fc;align=left;verticalAlign=top;spacingLeft=4;spacingRight=4;overflow=hidden;rotatable=0;points=[[0,0.5],[1,0.5]];portConstraint=eastwest;whiteSpace=wrap;html=1;" parent="tRIh7gjQmwrZG-bwbQby-6" vertex="1">
          <mxGeometry y="40" width="240" height="70" as="geometry" />
        </mxCell>
        <mxCell id="tRIh7gjQmwrZG-bwbQby-8" value="&quot;last name&quot;" style="text;strokeColor=#6c8ebf;fillColor=#dae8fc;align=left;verticalAlign=top;spacingLeft=4;spacingRight=4;overflow=hidden;rotatable=0;points=[[0,0.5],[1,0.5]];portConstraint=eastwest;whiteSpace=wrap;html=1;" parent="tRIh7gjQmwrZG-bwbQby-6" vertex="1">
          <mxGeometry y="110" width="240" height="68" as="geometry" />
        </mxCell>
        <mxCell id="tRIh7gjQmwrZG-bwbQby-10" value="plot" style="swimlane;fontStyle=0;childLayout=stackLayout;horizontal=1;startSize=40;fillColor=#e1d5e7;horizontalStack=0;resizeParent=1;resizeParentMax=0;resizeLast=0;collapsible=1;marginBottom=0;whiteSpace=wrap;html=1;strokeColor=#9673a6;" parent="1" vertex="1">
          <mxGeometry y="440" width="260" height="190" as="geometry" />
        </mxCell>
        <mxCell id="tRIh7gjQmwrZG-bwbQby-11" value="&quot;title&quot; - str" style="text;strokeColor=#d79b00;fillColor=#ffe6cc;align=left;verticalAlign=top;spacingLeft=4;spacingRight=4;overflow=hidden;rotatable=0;points=[[0,0.5],[1,0.5]];portConstraint=eastwest;whiteSpace=wrap;html=1;" parent="tRIh7gjQmwrZG-bwbQby-10" vertex="1">
          <mxGeometry y="40" width="260" height="50" as="geometry" />
        </mxCell>
        <mxCell id="tRIh7gjQmwrZG-bwbQby-12" value="&quot;plot&quot; - image" style="text;strokeColor=#d6b656;fillColor=#fff2cc;align=left;verticalAlign=top;spacingLeft=4;spacingRight=4;overflow=hidden;rotatable=0;points=[[0,0.5],[1,0.5]];portConstraint=eastwest;whiteSpace=wrap;html=1;" parent="tRIh7gjQmwrZG-bwbQby-10" vertex="1">
          <mxGeometry y="90" width="260" height="50" as="geometry" />
        </mxCell>
        <mxCell id="tRIh7gjQmwrZG-bwbQby-13" value="&quot;tag&quot; - str" style="text;strokeColor=#82b366;fillColor=#d5e8d4;align=left;verticalAlign=top;spacingLeft=4;spacingRight=4;overflow=hidden;rotatable=0;points=[[0,0.5],[1,0.5]];portConstraint=eastwest;whiteSpace=wrap;html=1;" parent="tRIh7gjQmwrZG-bwbQby-10" vertex="1">
          <mxGeometry y="140" width="260" height="50" as="geometry" />
        </mxCell>
        <mxCell id="tRIh7gjQmwrZG-bwbQby-14" value="vacancy" style="swimlane;fontStyle=0;childLayout=stackLayout;horizontal=1;startSize=26;fillColor=none;horizontalStack=0;resizeParent=1;resizeParentMax=0;resizeLast=0;collapsible=1;marginBottom=0;whiteSpace=wrap;html=1;" parent="1" vertex="1">
          <mxGeometry x="540" y="440" width="280" height="230" as="geometry" />
        </mxCell>
        <mxCell id="tRIh7gjQmwrZG-bwbQby-15" value="&quot;name&quot;" style="text;strokeColor=none;fillColor=none;align=left;verticalAlign=top;spacingLeft=4;spacingRight=4;overflow=hidden;rotatable=0;points=[[0,0.5],[1,0.5]];portConstraint=eastwest;whiteSpace=wrap;html=1;" parent="tRIh7gjQmwrZG-bwbQby-14" vertex="1">
          <mxGeometry y="26" width="280" height="54" as="geometry" />
        </mxCell>
        <mxCell id="tRIh7gjQmwrZG-bwbQby-16" value="&quot;mean salary&quot;" style="text;strokeColor=none;fillColor=none;align=left;verticalAlign=top;spacingLeft=4;spacingRight=4;overflow=hidden;rotatable=0;points=[[0,0.5],[1,0.5]];portConstraint=eastwest;whiteSpace=wrap;html=1;" parent="tRIh7gjQmwrZG-bwbQby-14" vertex="1">
          <mxGeometry y="80" width="280" height="50" as="geometry" />
        </mxCell>
        <mxCell id="tRIh7gjQmwrZG-bwbQby-17" value="&quot;area name&quot;" style="text;strokeColor=none;fillColor=none;align=left;verticalAlign=top;spacingLeft=4;spacingRight=4;overflow=hidden;rotatable=0;points=[[0,0.5],[1,0.5]];portConstraint=eastwest;whiteSpace=wrap;html=1;" parent="tRIh7gjQmwrZG-bwbQby-14" vertex="1">
          <mxGeometry y="130" width="280" height="50" as="geometry" />
        </mxCell>
        <mxCell id="tRIh7gjQmwrZG-bwbQby-18" value="&quot;published_at&quot;" style="text;strokeColor=none;fillColor=none;align=left;verticalAlign=top;spacingLeft=4;spacingRight=4;overflow=hidden;rotatable=0;points=[[0,0.5],[1,0.5]];portConstraint=eastwest;whiteSpace=wrap;html=1;" parent="tRIh7gjQmwrZG-bwbQby-14" vertex="1">
          <mxGeometry y="180" width="280" height="50" as="geometry" />
        </mxCell>
        <mxCell id="tRIh7gjQmwrZG-bwbQby-21" style="edgeStyle=orthogonalEdgeStyle;rounded=0;orthogonalLoop=1;jettySize=auto;html=1;exitX=0;exitY=1;exitDx=0;exitDy=0;entryX=0.5;entryY=0;entryDx=0;entryDy=0;" parent="1" target="tRIh7gjQmwrZG-bwbQby-20" edge="1">
          <mxGeometry relative="1" as="geometry">
            <mxPoint x="320" y="750" as="sourcePoint" />
            <mxPoint x="140" y="770" as="targetPoint" />
            <Array as="points">
              <mxPoint x="140" y="750" />
            </Array>
          </mxGeometry>
        </mxCell>
        <mxCell id="tRIh7gjQmwrZG-bwbQby-31" style="edgeStyle=orthogonalEdgeStyle;rounded=0;orthogonalLoop=1;jettySize=auto;html=1;exitX=0;exitY=1;exitDx=0;exitDy=0;entryX=0.5;entryY=0;entryDx=0;entryDy=0;" parent="1" source="tRIh7gjQmwrZG-bwbQby-19" target="tRIh7gjQmwrZG-bwbQby-25" edge="1">
          <mxGeometry relative="1" as="geometry" />
        </mxCell>
        <mxCell id="tRIh7gjQmwrZG-bwbQby-32" style="edgeStyle=orthogonalEdgeStyle;rounded=0;orthogonalLoop=1;jettySize=auto;html=1;exitX=1;exitY=0.75;exitDx=0;exitDy=0;entryX=0.5;entryY=0;entryDx=0;entryDy=0;" parent="1" source="tRIh7gjQmwrZG-bwbQby-19" target="tRIh7gjQmwrZG-bwbQby-29" edge="1">
          <mxGeometry relative="1" as="geometry" />
        </mxCell>
        <mxCell id="tRIh7gjQmwrZG-bwbQby-36" style="edgeStyle=orthogonalEdgeStyle;rounded=0;orthogonalLoop=1;jettySize=auto;html=1;exitX=1;exitY=0.5;exitDx=0;exitDy=0;entryX=0.5;entryY=0;entryDx=0;entryDy=0;" parent="1" source="tRIh7gjQmwrZG-bwbQby-19" target="tRIh7gjQmwrZG-bwbQby-35" edge="1">
          <mxGeometry relative="1" as="geometry" />
        </mxCell>
        <mxCell id="tRIh7gjQmwrZG-bwbQby-19" value="Root Page" style="rounded=1;whiteSpace=wrap;html=1;fillColor=#f8cecc;strokeColor=#b85450;" parent="1" vertex="1">
          <mxGeometry x="320" y="720" width="120" height="60" as="geometry" />
        </mxCell>
        <mxCell id="tRIh7gjQmwrZG-bwbQby-23" style="edgeStyle=orthogonalEdgeStyle;rounded=0;orthogonalLoop=1;jettySize=auto;html=1;exitX=0.5;exitY=1;exitDx=0;exitDy=0;entryX=0.5;entryY=0;entryDx=0;entryDy=0;" parent="1" source="tRIh7gjQmwrZG-bwbQby-20" target="tRIh7gjQmwrZG-bwbQby-22" edge="1">
          <mxGeometry relative="1" as="geometry" />
        </mxCell>
        <mxCell id="tRIh7gjQmwrZG-bwbQby-20" value="salary" style="rounded=1;whiteSpace=wrap;html=1;fillColor=#ffe6cc;strokeColor=#d79b00;" parent="1" vertex="1">
          <mxGeometry x="80" y="800" width="120" height="60" as="geometry" />
        </mxCell>
        <mxCell id="tRIh7gjQmwrZG-bwbQby-22" value="запрос к таблице plot" style="rounded=1;whiteSpace=wrap;html=1;fillColor=#fff2cc;strokeColor=#d6b656;" parent="1" vertex="1">
          <mxGeometry x="80" y="890" width="120" height="60" as="geometry" />
        </mxCell>
        <mxCell id="tRIh7gjQmwrZG-bwbQby-24" value="GET /salary/" style="text;html=1;align=center;verticalAlign=middle;resizable=0;points=[];autosize=1;strokeColor=none;fillColor=none;" parent="1" vertex="1">
          <mxGeometry x="165" y="728" width="90" height="30" as="geometry" />
        </mxCell>
        <mxCell id="tRIh7gjQmwrZG-bwbQby-28" style="edgeStyle=orthogonalEdgeStyle;rounded=0;orthogonalLoop=1;jettySize=auto;html=1;exitX=0.5;exitY=1;exitDx=0;exitDy=0;entryX=0.5;entryY=0;entryDx=0;entryDy=0;" parent="1" source="tRIh7gjQmwrZG-bwbQby-25" target="tRIh7gjQmwrZG-bwbQby-27" edge="1">
          <mxGeometry relative="1" as="geometry" />
        </mxCell>
        <mxCell id="tRIh7gjQmwrZG-bwbQby-25" value="geography" style="rounded=1;whiteSpace=wrap;html=1;fillColor=#ffe6cc;strokeColor=#d79b00;" parent="1" vertex="1">
          <mxGeometry x="260" y="800" width="120" height="60" as="geometry" />
        </mxCell>
        <mxCell id="tRIh7gjQmwrZG-bwbQby-27" value="запрос к таблице vacancy" style="rounded=1;whiteSpace=wrap;html=1;fillColor=#fff2cc;strokeColor=#d6b656;" parent="1" vertex="1">
          <mxGeometry x="260" y="890" width="120" height="60" as="geometry" />
        </mxCell>
        <mxCell id="tRIh7gjQmwrZG-bwbQby-33" style="edgeStyle=orthogonalEdgeStyle;rounded=0;orthogonalLoop=1;jettySize=auto;html=1;exitX=0.5;exitY=1;exitDx=0;exitDy=0;" parent="1" source="tRIh7gjQmwrZG-bwbQby-29" target="tRIh7gjQmwrZG-bwbQby-34" edge="1">
          <mxGeometry relative="1" as="geometry">
            <mxPoint x="499.8571428571429" y="890" as="targetPoint" />
          </mxGeometry>
        </mxCell>
        <mxCell id="tRIh7gjQmwrZG-bwbQby-29" value="skills" style="rounded=1;whiteSpace=wrap;html=1;fillColor=#ffe6cc;strokeColor=#d79b00;" parent="1" vertex="1">
          <mxGeometry x="440" y="800" width="120" height="60" as="geometry" />
        </mxCell>
        <mxCell id="tRIh7gjQmwrZG-bwbQby-34" value="запрос к таблице vacancy" style="rounded=1;whiteSpace=wrap;html=1;fillColor=#fff2cc;strokeColor=#d6b656;" parent="1" vertex="1">
          <mxGeometry x="439.9971428571429" y="890" width="120" height="60" as="geometry" />
        </mxCell>
        <mxCell id="tRIh7gjQmwrZG-bwbQby-37" style="edgeStyle=orthogonalEdgeStyle;rounded=0;orthogonalLoop=1;jettySize=auto;html=1;exitX=0.5;exitY=1;exitDx=0;exitDy=0;" parent="1" source="tRIh7gjQmwrZG-bwbQby-35" target="tRIh7gjQmwrZG-bwbQby-38" edge="1">
          <mxGeometry relative="1" as="geometry">
            <mxPoint x="659.8571428571429" y="890" as="targetPoint" />
          </mxGeometry>
        </mxCell>
        <mxCell id="tRIh7gjQmwrZG-bwbQby-35" value="latest vacancy" style="rounded=1;whiteSpace=wrap;html=1;fillColor=#ffe6cc;strokeColor=#d79b00;" parent="1" vertex="1">
          <mxGeometry x="600" y="800" width="120" height="60" as="geometry" />
        </mxCell>
        <mxCell id="tRIh7gjQmwrZG-bwbQby-38" value="запрос к таблице vacancy" style="rounded=1;whiteSpace=wrap;html=1;fillColor=#fff2cc;strokeColor=#d6b656;" parent="1" vertex="1">
          <mxGeometry x="599.9971428571429" y="890" width="120" height="60" as="geometry" />
        </mxCell>
      </root>
    </mxGraphModel>
  </diagram>
</mxfile>
